<svg enable-background="new 0 0 400 400" viewBox="0 0 400 400" xmlns="http://www.w3.org/2000/svg" width="32" height="32"><path d="m218.39 78.45c4.07 3.32 7.82 6.03 11.15 9.17 7.42 6.98 8.27 11.62 4.49 20.91-1.44 3.53-2.69 7.14-3.98 10.73-.62 1.71-1.14 3.44-2.02 6.16 9.03-1.38 17.56-2.24 25.87-4.07 8.87-1.95 17.47-5.13 26.34-7.13 3.89-.88 8.37-1.02 12.18-.01 11.6 3.07 21.87 8.85 30.22 17.65 4.93 5.2 4.8 8.23-1.19 11.88-13.64 8.31-22.71 20.75-31.7 33.44-4.9 6.9-10.18 13.62-15.96 19.78-7.62 8.13-10.42 7.3-13.85-3.29-43.63 3.15-87.2 7.24-130.21 15.64-.88 3.87-1.73 7.61-2.58 11.34-.58.15-1.15.29-1.73.44-2.15-3.19-4.58-6.23-6.41-9.6-8.15-15.06-15.88-30.36-24.27-45.28-3.56-6.33-8.46-11.91-12.57-17.95-1.06-1.55-2.32-3.83-1.86-5.26.36-1.13 3.2-2.08 4.93-2.07 5.62.03 11.32.08 16.85.97 11.3 1.8 22.18-.68 33.14-2.45 6.18-1 12.27-2.51 18.82-3.88-2.1-14.88-4.79-29.16-12.02-42.13-.68-1.23-2.88-1.84-4.49-2.29-6.36-1.78-12.81-3.22-19.13-5.13-1.94-.58-3.56-2.22-6.81-4.35 3.98-1.18 6.46-2.16 9.03-2.65 22.31-4.24 44.71-8.1 66.95-12.67 20.62-4.24 41.01-9.62 61.67-13.66 6.66-1.3 13.87-.25 20.76.4 2.79.26 5.65 2 8.05 3.68 4.6 3.21 4.31 7.47-.99 9.27-7.5 2.54-15.28 4.41-23.06 6-11.63 2.35-23.34 4.22-35.62 6.41zm-6.62 107.6c1.38 0 2.01.06 2.63-.01 15.67-1.74 31.35-3.46 47.01-5.29.98-.11 2.2-.82 2.76-1.64 7.37-10.8 13.5-22.23 15.6-35.3 1.42-8.88-1.94-12.96-10.85-12.27-13.39 1.04-26.71 2.98-40.03 4.73-1.1.15-2.58 1.59-2.93 2.72-4.79 15.5-9.4 31.04-14.19 47.06zm-43.37-51.99c13.37-1.85 26.16-3.57 38.93-5.49.94-.14 2.28-1.59 2.4-2.55 1.44-11.92 2.19-23.86-.91-35.67-2.37-9.02-3.32-9.59-12.57-7.81-1.14.22-2.3.35-3.44.56-9.54 1.73-19.07 3.47-27.19 4.95.95 15.77 1.84 30.55 2.78 46.01zm-42.02 65.72c10.93-2.02 21.45-3.96 32.52-6-1.05-15.43-2.05-30.25-3.1-45.78-14.72 2.08-28.68 4.05-42.7 6.03 4.54 15.65 8.83 30.43 13.28 45.75zm82.07-61.12c-13.52 2.69-25.65 5.02-37.72 7.67-1.03.23-2.24 2.56-2.26 3.94-.08 4.3.44 8.6.59 12.91.34 9.57.61 19.14.92 29.18 9.35-1.37 18.03-2.53 26.66-4.01 1.2-.21 2.84-1.85 3.08-3.06 2.93-14.91 5.63-29.86 8.73-46.63z" fill="#010106"/><path d="m50.61 332.5c2.89-.58 5.35-1.48 7.83-1.51 31.82-.31 63.34-4.12 94.87-7.9 9.73-1.17 19.47-2.3 29.23-3.19 3.75-.34 5.5-1.35 5.39-5.67-.32-12.29-.11-24.6-.11-37.57-10.22 1.05-19.91 1.98-29.59 3.05-11.5 1.28-22.59.32-32.84-5.59-1.54-.89-2.94-2.03-4.4-3.05-.05-.55-.1-1.11-.16-1.66 3.12-.82 6.2-1.9 9.38-2.42 18.97-3.1 37.96-6.07 57.45-9.16-1.1-15.84-1.38-30.41-8.37-43.76-.62-1.18-1.44-2.26-1.96-3.48-1.72-4.08-.31-6.66 4.01-5.81 8.71 1.71 17.41 3.85 25.75 6.83 5.28 1.88 5.71 5.89 4.31 11.63-2.38 9.73-4.16 19.61-6.4 30.44 10.19-1.93 18.72-3.92 27.36-5.08 9.84-1.31 19.77-2.11 29.69-2.61 2.8-.14 5.92 1.07 8.48 2.45 4.63 2.5 4.91 6.34.29 8.64-6.49 3.22-13.33 6.15-20.34 7.83-13.53 3.24-27.31 5.45-40.95 8.28-1.3.27-3.27 1.91-3.32 2.98-.56 13.3-.83 26.61-1.14 39.92-.01.45.3.91.53 1.53 12.12-.66 24.21-1.3 36.3-1.96 18.6-1.02 37.19-2.29 55.81-2.98 11.26-.41 22.63-.65 33.82.38 11.38 1.05 20 7.86 26.19 17.28 1.42 2.17 2.41 6.64 1.23 8.01-1.56 1.82-5.74 2.76-8.31 2.12-35.54-8.81-71.74-10.36-108.03-9.09-21.22.74-42.44 3.09-63.53 5.71-28.18 3.5-56.34 7.38-84.31 12.26-16.1 2.81-28.45-3.58-40.64-12.1-.8-.56-1.46-1.37-2.08-2.14-.42-.49-.65-1.12-1.44-2.61z" fill="#740"/></svg>
